<svg width="24" height="24" viewBox="0 0 24 24" fill="none" xmlns="http://www.w3.org/2000/svg">
<path d="M11.998 16C14.945 16 17.331 13.635 17.331 10.716C17.331 7.799 15.244 4.798 11.998 0C8.752 4.798 6.666 7.799 6.666 10.716C6.666 13.635 9.051 16 11.998 16V16ZM11.98 3.413C12.291 3.897 12.665 4.738 12.665 5.626C12.665 8.232 9.998 8.659 9.998 7.073C9.998 5.985 11.324 4.377 11.98 3.413ZM11.998 20C9.631 20 6.287 19.386 4.713 17.644C5.186 17.35 5.863 17.034 6.734 16.755C7.657 17.344 9.436 18 11.998 18C14.56 18 16.339 17.344 17.263 16.755C18.133 17.033 18.811 17.35 19.285 17.644C17.711 19.386 14.365 20 11.998 20ZM23.995 18C23.995 21.313 18.625 24 11.998 24C5.373 24 0.001 21.313 0.001 18L0.004 17.874C0.047 16.865 0.619 15.953 1.509 15.476C2.399 14.999 3.474 15.028 4.338 15.55L4.361 15.564C2.848 16.327 2 17.242 2 18C2 19.631 5.895 22 11.998 22C18.101 22 21.996 19.631 21.996 18C21.996 17.243 21.149 16.329 19.638 15.564L19.659 15.552C20.536 15.023 21.628 15.004 22.523 15.5C23.418 15.996 23.981 16.934 23.995 17.958V18ZM18.996 13.969C20.449 12.563 22.06 13.787 23.398 12.492C23.816 12.089 24.001 11.59 24.001 11.108C24.001 9.829 22.52 8.847 20.98 9.672C19.746 10.333 19.059 12.021 18.996 13.969V13.969ZM19.174 8.902C19.804 7.865 20.923 8.332 21.503 7.378C22.191 6.245 20.774 5.088 19.674 6.109C19.059 6.679 18.914 7.763 19.174 8.902ZM3.021 9.672C1.482 8.847 0 9.829 0 11.108C0 11.59 0.185 12.088 0.602 12.492C1.94 13.787 3.552 12.563 5.004 13.969C4.942 12.021 4.256 10.333 3.021 9.672V9.672ZM4.328 6.109C3.228 5.088 1.81 6.245 2.498 7.378C3.078 8.332 4.197 7.865 4.828 8.902C5.087 7.763 4.943 6.679 4.328 6.109V6.109Z" fill="#3F3D56"/>
</svg>
