<svg width="20" height="24" viewBox="0 0 20 24" fill="none" xmlns="http://www.w3.org/2000/svg">
<path fill-rule="evenodd" clip-rule="evenodd" d="M11 24H9V19.171C8.305 18.998 7.587 18.669 7.049 18.276C6.549 18.426 6.03 18.501 5.5 18.501C2.467 18.501 0 15.996 0 12.917C0 11.634 0.421 10.423 1.197 9.44C1.002 8.944 0.9 8.415 0.9 7.875C0.9 5.85 2.303 4.154 4.198 3.755C5.24 1.485 7.499 0 10 0C12.501 0 14.761 1.485 15.803 3.756C17.697 4.154 19.1 5.85 19.1 7.875C19.1 8.415 18.998 8.945 18.804 9.44C19.58 10.423 20 11.633 20 12.917C20 15.996 17.532 18.501 14.5 18.501C13.972 18.501 13.454 18.426 12.955 18.277C12.437 18.664 11.731 19.011 11 19.185V24V24ZM7.55 15.919C8.498 17.29 9.741 17.303 10.056 17.303C10.397 17.303 11.623 17.228 12.451 15.919C13.152 16.335 15.342 17.08 16.945 15.481C18.334 14.089 18.56 11.341 16.328 9.755C17.446 8.543 17.131 7.444 16.895 6.931C16.552 6.183 15.81 5.597 14.371 5.638C13.955 3.658 11.909 2 10 2C8.106 2 6.014 3.616 5.63 5.638C4.385 5.61 3.578 6.161 3.262 6.645C2.937 7.145 2.595 8.457 3.672 9.755C1.484 11.617 1.682 14.107 3.056 15.481C4.922 17.345 7.067 16.129 7.55 15.919V15.919Z" fill="#3F3D56"/>
</svg>
