<svg width="12" height="24" viewBox="0 0 12 24" fill="none" xmlns="http://www.w3.org/2000/svg">
<path d="M5 14.699V20.955C4.333 20.969 3.5 20.891 3 20.772V14.567C3 11.807 4.367 12.679 5.504 9.324C5.221 11.077 5 11.976 5 14.699V14.699ZM6 24C2.259 24 0 24 0 21.701V13.547C0 10.65 1.78 10.187 2.25 9.187C2.684 8.263 3.187 4.602 3.204 4.138L3.156 4.06C2.704 3.373 2.578 2.688 3.213 1.04C3.397 0.557 3.882 0 6 0C8.118 0 8.603 0.557 8.788 1.042C9.364 2.537 9.377 3.3 8.837 4.065C8.813 4.6 9.316 8.261 9.75 9.186C10.221 10.186 12 10.65 12 13.546V21.7C12 24 9.741 24 6 24ZM4.961 2.083C4.75 2.702 4.777 2.884 4.779 2.893C5.071 3.267 5.204 3.702 5.204 4.15C5.204 4.537 4.694 8.684 4.06 10.036C3.372 11.502 2 11.577 2 13.547V21.701C2.458 22.127 9.544 22.102 10.042 21.724L10 13.547C10 11.579 8.628 11.501 7.939 10.037C7.305 8.684 6.795 4.538 6.795 4.151C6.795 3.49 7.06 3.114 7.202 2.913C7.23 2.877 7.248 2.688 7.039 2.084C6.832 2.042 6.479 2 6 2C5.521 2 5.169 2.042 4.961 2.083V2.083Z" fill="#3F3D56"/>
</svg>
