<svg width="304" height="239" viewBox="0 0 304 239" fill="none" xmlns="http://www.w3.org/2000/svg">
<path d="M149.608 54.3019H148.351V19.9069C148.351 14.6273 146.25 9.56388 142.512 5.83061C138.774 2.09734 133.703 6.58331e-06 128.416 1.26342e-10H55.445C52.8272 -9.31322e-06 50.235 0.514889 47.8165 1.5153C45.3979 2.5157 43.2003 3.98203 41.3493 5.83055C39.4982 7.67907 38.0298 9.87358 37.028 12.2888C36.0262 14.704 35.5106 17.2926 35.5106 19.9068V208.601C35.5106 211.215 36.0262 213.803 37.028 216.219C38.0298 218.634 39.4981 220.828 41.3492 222.677C43.2003 224.525 45.3978 225.992 47.8164 226.992C50.2349 227.993 52.8271 228.508 55.4449 228.508H128.416C131.034 228.508 133.626 227.993 136.045 226.992C138.463 225.992 140.661 224.526 142.512 222.677C144.363 220.828 145.831 218.634 146.833 216.219C147.835 213.804 148.351 211.215 148.351 208.601V78.7849H149.608V54.3019Z" fill="#3F3D56"/>
<path d="M129.07 5.64992H119.545C119.983 6.72236 120.151 7.88592 120.032 9.0381C119.914 10.1903 119.514 11.2957 118.867 12.257C118.22 13.2183 117.346 14.006 116.322 14.5507C115.299 15.0953 114.157 15.3802 112.997 15.3803H71.1926C70.0328 15.3802 68.8908 15.0953 67.8672 14.5507C66.8436 14.006 65.9699 13.2183 65.323 12.257C64.676 11.2957 64.2758 10.1903 64.1574 9.0381C64.0391 7.88592 64.2063 6.72236 64.6443 5.64992H55.7478C51.7996 5.64991 48.013 7.21616 45.2212 10.0041C42.4294 12.7921 40.861 16.5734 40.861 20.5161V208.933C40.861 210.885 41.246 212.818 41.9942 214.622C42.7423 216.426 43.8388 218.065 45.2212 219.445C46.6036 220.826 48.2447 221.921 50.0508 222.668C51.857 223.415 53.7928 223.799 55.7478 223.799H129.07C133.019 223.799 136.805 222.233 139.597 219.445C142.389 216.657 143.957 212.876 143.957 208.933V20.5162C143.957 18.5639 143.572 16.6308 142.824 14.8271C142.076 13.0234 140.979 11.3846 139.597 10.0041C138.215 8.62368 136.574 7.52864 134.767 6.78154C132.961 6.03444 131.025 5.64992 129.07 5.64992H129.07ZM127.47 93.0577C127.467 94.0781 127.06 95.0558 126.337 95.7773C125.615 96.4988 124.636 96.9054 123.614 96.9084H104.977C103.955 96.9054 102.976 96.4988 102.254 95.7773C101.531 95.0558 101.124 94.0781 101.121 93.0577V92.0951C101.124 91.0747 101.531 90.097 102.254 89.3755C102.976 88.654 103.955 88.2474 104.977 88.2444H123.614C124.636 88.2474 125.615 88.654 126.337 89.3755C127.06 90.097 127.467 91.0747 127.47 92.0951V93.0577ZM129.559 76.0506C129.556 77.071 129.149 78.0487 128.426 78.7702C127.704 79.4917 126.725 79.8983 125.703 79.9013H58.8657C57.844 79.8983 56.8649 79.4917 56.1424 78.7702C55.4199 78.0487 55.0127 77.071 55.0097 76.0506V75.088C55.0127 74.0676 55.4199 73.0899 56.1424 72.3684C56.8649 71.6469 57.844 71.2403 58.8657 71.2373H125.703C126.725 71.2403 127.704 71.6469 128.426 72.3684C129.149 73.0899 129.556 74.0676 129.559 75.088V76.0506ZM129.559 59.0435C129.556 60.0639 129.149 61.0416 128.426 61.7631C127.704 62.4845 126.725 62.8912 125.703 62.8942H58.8657C57.844 62.8912 56.8649 62.4846 56.1424 61.7631C55.4199 61.0416 55.0127 60.0639 55.0097 59.0435V58.0809C55.0127 57.0605 55.4199 56.0828 56.1424 55.3613C56.8649 54.6398 57.844 54.2332 58.8657 54.2302H125.703C126.725 54.2332 127.704 54.6398 128.426 55.3613C129.149 56.0828 129.556 57.0605 129.559 58.0809V59.0435ZM129.559 42.0364C129.556 43.0568 129.149 44.0345 128.426 44.756C127.704 45.4774 126.725 45.8841 125.703 45.8871H58.8657C57.844 45.8841 56.8649 45.4774 56.1424 44.756C55.4199 44.0345 55.0127 43.0568 55.0097 42.0364V41.0737C55.0127 40.0534 55.4199 39.0757 56.1424 38.3542C56.8649 37.6327 57.844 37.2261 58.8657 37.2231H125.703C126.725 37.2261 127.704 37.6327 128.426 38.3542C129.149 39.0757 129.556 40.0534 129.559 41.0737V42.0364Z" fill="white"/>
<path d="M60.3118 77.976C61.554 77.976 62.5611 76.9703 62.5611 75.7297C62.5611 74.4892 61.554 73.4835 60.3118 73.4835C59.0695 73.4835 58.0624 74.4892 58.0624 75.7297C58.0624 76.9703 59.0695 77.976 60.3118 77.976Z" fill="white"/>
<path d="M67.7024 77.976C68.9447 77.976 69.9517 76.9703 69.9517 75.7297C69.9517 74.4892 68.9447 73.4835 67.7024 73.4835C66.4601 73.4835 65.4531 74.4892 65.4531 75.7297C65.4531 76.9703 66.4601 77.976 67.7024 77.976Z" fill="white"/>
<path d="M75.093 77.976C76.3353 77.976 77.3423 76.9703 77.3423 75.7297C77.3423 74.4892 76.3353 73.4835 75.093 73.4835C73.8507 73.4835 72.8437 74.4892 72.8437 75.7297C72.8437 76.9703 73.8507 77.976 75.093 77.976Z" fill="white"/>
<path d="M82.4836 77.976C83.7259 77.976 84.733 76.9703 84.733 75.7297C84.733 74.4892 83.7259 73.4835 82.4836 73.4835C81.2414 73.4835 80.2343 74.4892 80.2343 75.7297C80.2343 76.9703 81.2414 77.976 82.4836 77.976Z" fill="white"/>
<path d="M106.584 94.9831C107.826 94.9831 108.833 93.9774 108.833 92.7369C108.833 91.4963 107.826 90.4906 106.584 90.4906C105.341 90.4906 104.334 91.4963 104.334 92.7369C104.334 93.9774 105.341 94.9831 106.584 94.9831Z" fill="white"/>
<path d="M113.974 94.9831C115.216 94.9831 116.224 93.9774 116.224 92.7369C116.224 91.4963 115.216 90.4906 113.974 90.4906C112.732 90.4906 111.725 91.4963 111.725 92.7369C111.725 93.9774 112.732 94.9831 113.974 94.9831Z" fill="white"/>
<path d="M121.365 94.9831C122.607 94.9831 123.614 93.9774 123.614 92.7369C123.614 91.4963 122.607 90.4906 121.365 90.4906C120.123 90.4906 119.115 91.4963 119.115 92.7369C119.115 93.9774 120.123 94.9831 121.365 94.9831Z" fill="white"/>
<path d="M130.076 121.841H53.85C52.0592 121.841 50.3417 122.551 49.0754 123.816C47.8091 125.08 47.0977 126.795 47.0977 128.584V165.671C47.0977 167.46 47.8091 169.175 49.0754 170.439C50.3417 171.704 52.0592 172.414 53.85 172.414H130.076C131.867 172.414 133.584 171.704 134.851 170.439C136.117 169.175 136.828 167.46 136.828 165.671V128.584C136.828 126.795 136.117 125.08 134.851 123.816C133.584 122.551 131.867 121.841 130.076 121.841H130.076ZM51.964 126.441C52.1146 126.413 55.6839 125.807 58.6395 127.583C61.5949 129.358 62.7304 132.792 62.7772 132.937L62.8967 133.307L62.5132 133.375C61.966 133.461 61.4128 133.501 60.859 133.497C59.1023 133.53 57.3685 133.094 55.8376 132.233C52.8822 130.458 51.7468 127.024 51.7 126.879L51.5805 126.508L51.964 126.441ZM68.5107 160.874H54.9152C53.9236 160.874 52.9726 160.481 52.2714 159.78C51.5703 159.08 51.1764 158.131 51.1764 157.14C51.1764 156.15 51.5703 155.2 52.2714 154.5C52.9726 153.8 53.9236 153.407 54.9152 153.407H68.5107C69.5023 153.407 70.4532 153.8 71.1544 154.5C71.8556 155.2 72.2495 156.15 72.2495 157.14C72.2495 158.131 71.8556 159.08 71.1544 159.78C70.4532 160.481 69.5023 160.874 68.5107 160.874ZM130.37 160.195C130.367 161.274 129.936 162.309 129.172 163.072C128.408 163.835 127.372 164.265 126.292 164.268H116.095C115.014 164.265 113.979 163.835 113.214 163.072C112.45 162.309 112.02 161.274 112.016 160.195V154.086C112.02 153.006 112.45 151.972 113.214 151.209C113.979 150.446 115.014 150.016 116.095 150.013H126.292C127.372 150.016 128.408 150.446 129.172 151.209C129.936 151.972 130.367 153.006 130.37 154.086L130.37 160.195Z" fill="#E1FFB1"/>
<path d="M119.383 158.936H115.283C114.99 158.936 114.709 159.052 114.502 159.259C114.295 159.466 114.179 159.746 114.179 160.038C114.179 160.331 114.295 160.611 114.502 160.818C114.709 161.025 114.99 161.141 115.283 161.141H119.383C119.675 161.141 119.956 161.025 120.163 160.818C120.37 160.611 120.486 160.331 120.486 160.038C120.486 159.746 120.37 159.466 120.163 159.259C119.956 159.052 119.675 158.936 119.383 158.936Z" fill="#3F3D56"/>
<path d="M126.952 158.936H122.852C122.559 158.936 122.278 159.052 122.071 159.259C121.864 159.466 121.748 159.746 121.748 160.038C121.748 160.331 121.864 160.611 122.071 160.818C122.278 161.025 122.559 161.141 122.852 161.141H126.952C127.244 161.141 127.525 161.025 127.732 160.818C127.939 160.611 128.055 160.331 128.055 160.038C128.055 159.746 127.939 159.466 127.732 159.259C127.525 159.052 127.244 158.936 126.952 158.936Z" fill="#3F3D56"/>
<path d="M119.382 155.825H115.282C114.989 155.825 114.709 155.941 114.502 156.147C114.295 156.354 114.178 156.635 114.178 156.927C114.178 157.219 114.295 157.5 114.502 157.706C114.709 157.913 114.989 158.029 115.282 158.029H119.382C119.675 158.029 119.955 157.913 120.162 157.706C120.369 157.5 120.486 157.219 120.486 156.927C120.486 156.635 120.369 156.354 120.162 156.147C119.955 155.941 119.675 155.825 119.382 155.825Z" fill="#3F3D56"/>
<path d="M126.951 155.825H122.851C122.558 155.825 122.278 155.941 122.071 156.147C121.864 156.354 121.747 156.635 121.747 156.927C121.747 157.219 121.864 157.5 122.071 157.706C122.278 157.913 122.558 158.029 122.851 158.029H126.951C127.244 158.029 127.524 157.913 127.731 157.706C127.938 157.5 128.055 157.219 128.055 156.927C128.055 156.635 127.938 156.354 127.731 156.147C127.524 155.941 127.244 155.825 126.951 155.825H126.951Z" fill="#3F3D56"/>
<path d="M119.382 152.776H115.282C114.989 152.776 114.709 152.892 114.502 153.099C114.295 153.306 114.178 153.586 114.178 153.878C114.178 154.171 114.295 154.451 114.502 154.658C114.709 154.864 114.989 154.981 115.282 154.981H119.382C119.675 154.981 119.955 154.864 120.162 154.658C120.369 154.451 120.486 154.171 120.486 153.878C120.486 153.586 120.369 153.306 120.162 153.099C119.955 152.892 119.675 152.776 119.382 152.776Z" fill="#3F3D56"/>
<path d="M126.951 152.776H122.851C122.558 152.776 122.278 152.892 122.071 153.099C121.864 153.306 121.747 153.586 121.747 153.878C121.747 154.171 121.864 154.451 122.071 154.658C122.278 154.864 122.558 154.981 122.851 154.981H126.951C127.244 154.981 127.524 154.864 127.731 154.658C127.938 154.451 128.055 154.171 128.055 153.878C128.055 153.586 127.938 153.306 127.731 153.099C127.524 152.892 127.244 152.776 126.951 152.776H126.951Z" fill="#3F3D56"/>
<path d="M182.871 135.812H172.929V145.74H182.871V135.812Z" fill="#E6E6E6"/>
<path d="M161.211 141.84H177.545V158.151H161.211V141.84ZM176.835 142.549H161.921V157.442H176.835V142.549Z" fill="#3F3D56"/>
<path d="M9.94251 53.8991H0V63.8279H9.94251V53.8991Z" fill="#E6E6E6"/>
<path d="M21.6605 57.7997H5.32635V41.4881H21.6605V57.7997ZM6.03653 57.0905H20.9503V42.1973H6.03653V57.0905Z" fill="#3F3D56"/>
<path d="M231.901 234.538H227.547L225.477 217.77H231.901L231.901 234.538Z" fill="#FFB8B8"/>
<path d="M224.438 233.296H232.834V238.575H219.152C219.152 237.175 219.709 235.832 220.7 234.842C221.691 233.852 223.036 233.296 224.438 233.296Z" fill="#2F2E41"/>
<path d="M253.561 234.538H249.208L247.137 217.77H253.562L253.561 234.538Z" fill="#FFB8B8"/>
<path d="M246.098 233.296H254.494V238.575H240.812C240.812 237.175 241.369 235.832 242.361 234.842C243.352 233.852 244.696 233.296 246.098 233.296Z" fill="#2F2E41"/>
<path d="M210.062 174.571C209.749 174.11 209.541 173.586 209.453 173.036C209.364 172.486 209.397 171.924 209.55 171.388C209.703 170.853 209.971 170.357 210.336 169.936C210.702 169.515 211.155 169.18 211.664 168.953L226.463 128.221L233.745 132.189L216.848 171.114C217.173 171.994 217.164 172.962 216.822 173.835C216.48 174.708 215.829 175.426 214.992 175.852C214.156 176.278 213.192 176.383 212.284 176.147C211.375 175.911 210.585 175.35 210.062 174.571Z" fill="#FFB8B8"/>
<path d="M251.338 182.224C250.854 181.947 250.437 181.568 250.116 181.112C249.795 180.657 249.578 180.137 249.48 179.588C249.382 179.04 249.405 178.477 249.549 177.939C249.692 177.401 249.952 176.901 250.31 176.474L245.726 133.387L254.013 133.765L255.918 176.147C256.597 176.795 257.013 177.669 257.089 178.603C257.166 179.538 256.896 180.468 256.331 181.217C255.767 181.966 254.946 182.482 254.026 182.668C253.106 182.854 252.149 182.696 251.338 182.224V182.224Z" fill="#FFB8B8"/>
<path d="M238.117 120.676C242.934 120.676 246.839 116.777 246.839 111.967C246.839 107.157 242.934 103.258 238.117 103.258C233.301 103.258 229.396 107.157 229.396 111.967C229.396 116.777 233.301 120.676 238.117 120.676Z" fill="#FFB8B8"/>
<path d="M251.282 172.425H224.989L225.02 172.22C225.068 171.915 229.706 141.569 226.285 131.642C225.942 130.666 225.972 129.598 226.37 128.643C226.768 127.689 227.505 126.915 228.44 126.47H228.44C233.33 124.171 242.718 121.339 250.641 128.211C251.806 129.239 252.717 130.524 253.3 131.964C253.883 133.403 254.122 134.959 253.999 136.507L251.282 172.425Z" fill="#CCCCCC"/>
<path d="M230.039 146.054L218.201 143.656L223.75 130.525C224.082 129.253 224.905 128.165 226.04 127.499C227.175 126.832 228.527 126.643 229.802 126.971C231.076 127.3 232.168 128.12 232.838 129.251C233.508 130.382 233.701 131.733 233.375 133.006L230.039 146.054Z" fill="#CCCCCC"/>
<path d="M245.2 150.507L244.488 134.216C243.948 131.154 245.704 128.259 248.404 127.785C251.104 127.314 253.741 129.438 254.283 132.523L256.958 147.745L245.2 150.507Z" fill="#CCCCCC"/>
<path d="M250.407 170.475C254.638 186.565 255.099 207.023 253.958 229.338L248.277 228.629L237.979 186.077L232.298 229.338L225.906 228.983C223.997 205.569 222.137 185.469 225.196 172.247L250.407 170.475Z" fill="#2F2E41"/>
<path d="M243.864 118.698C242.237 120.429 239.215 119.499 239.003 117.135C238.987 116.951 238.988 116.767 239.007 116.583C239.116 115.536 239.722 114.585 239.577 113.479C239.544 113.204 239.442 112.942 239.279 112.717C237.982 110.984 234.939 113.493 233.715 111.923C232.965 110.961 233.847 109.446 233.271 108.37C232.511 106.95 230.26 107.651 228.849 106.873C227.278 106.008 227.372 103.602 228.406 102.138C229.667 100.353 231.877 99.401 234.06 99.2638C236.243 99.1265 238.411 99.7158 240.449 100.509C242.765 101.41 245.061 102.656 246.486 104.689C248.219 107.161 248.386 110.486 247.519 113.377C246.992 115.136 245.193 117.285 243.864 118.698Z" fill="#2F2E41"/>
<path d="M303.645 239H168.356C168.262 239 168.171 238.963 168.105 238.896C168.038 238.83 168.001 238.739 168.001 238.645C168.001 238.551 168.038 238.461 168.105 238.395C168.171 238.328 168.262 238.291 168.356 238.291H303.645C303.739 238.291 303.829 238.328 303.896 238.395C303.963 238.461 304 238.551 304 238.645C304 238.739 303.963 238.83 303.896 238.896C303.829 238.963 303.739 239 303.645 239Z" fill="#3F3D56"/>
</svg>
