<svg width="182" height="140" viewBox="0 0 182 140" fill="none" xmlns="http://www.w3.org/2000/svg">
<path d="M41.9072 96.8882L55.9982 74.704L24.4408 54.6145L8.1438 80.2718L34.2457 96.8882H41.9072Z" fill="#F0F0F0"/>
<path d="M61.8754 103.809H26.9713V96.7747H61.8754V103.809ZM27.4246 103.355H61.4221V97.2285H27.4246V103.355Z" fill="#3F3D56"/>
<path d="M57.5691 102.561C58.8209 102.561 59.8356 101.545 59.8356 100.292C59.8356 99.0386 58.8209 98.0227 57.5691 98.0227C56.3174 98.0227 55.3026 99.0386 55.3026 100.292C55.3026 101.545 56.3174 102.561 57.5691 102.561Z" fill="#E1FFB1"/>
<path d="M51.2229 102.561C52.4747 102.561 53.4894 101.545 53.4894 100.292C53.4894 99.0386 52.4747 98.0227 51.2229 98.0227C49.9712 98.0227 48.9564 99.0386 48.9564 100.292C48.9564 101.545 49.9712 102.561 51.2229 102.561Z" fill="#E1FFB1"/>
<path d="M44.8767 102.561C46.1285 102.561 47.1432 101.545 47.1432 100.292C47.1432 99.0386 46.1285 98.0227 44.8767 98.0227C43.625 98.0227 42.6102 99.0386 42.6102 100.292C42.6102 101.545 43.625 102.561 44.8767 102.561Z" fill="#E1FFB1"/>
<path d="M38.5305 102.561C39.7823 102.561 40.797 101.545 40.797 100.292C40.797 99.0386 39.7823 98.0227 38.5305 98.0227C37.2788 98.0227 36.264 99.0386 36.264 100.292C36.264 101.545 37.2788 102.561 38.5305 102.561Z" fill="#E1FFB1"/>
<path d="M32.1844 102.561C33.4361 102.561 34.4509 101.545 34.4509 100.292C34.4509 99.0386 33.4361 98.0227 32.1844 98.0227C30.9326 98.0227 29.9178 99.0386 29.9178 100.292C29.9178 101.545 30.9326 102.561 32.1844 102.561Z" fill="#E1FFB1"/>
<path d="M103.352 25.6402V8.39546H111.965V0H69.8082V42.2042H105.846V38.0778C105.846 37.3086 105.997 36.5469 106.291 35.8363C106.585 35.1256 107.016 34.4799 107.559 33.936C108.103 33.3921 108.748 32.9607 109.457 32.6663C110.167 32.3719 110.928 32.2204 111.696 32.2204H111.965V25.6402H103.352Z" fill="#F0F0F0"/>
<path d="M150.042 108.914H121.938V114.814H150.042V108.914Z" fill="#E1FFB1"/>
<path d="M156.162 79.8703H114.912V85.316H156.162V79.8703Z" fill="#F0F0F0"/>
<path d="M176.334 139.546H0V140H176.334V139.546Z" fill="#3F3D56"/>
<path d="M163.23 140H111.696C110.085 139.998 108.54 139.357 107.401 138.216C106.262 137.075 105.621 135.529 105.619 133.916V38.0778C105.621 36.4647 106.262 34.9182 107.401 33.7776C108.54 32.637 110.085 31.9954 111.696 31.9935H163.23C164.841 31.9954 166.386 32.637 167.525 33.7776C168.665 34.9182 169.306 36.4647 169.308 38.0778V133.916C169.306 135.529 168.665 137.075 167.525 138.216C166.386 139.357 164.841 139.998 163.23 140ZM111.696 32.4473C110.205 32.449 108.776 33.0428 107.721 34.0984C106.667 35.1539 106.074 36.5851 106.072 38.0778V133.916C106.074 135.408 106.667 136.84 107.721 137.895C108.776 138.951 110.205 139.544 111.696 139.546H163.23C164.721 139.544 166.151 138.951 167.205 137.895C168.259 136.84 168.853 135.408 168.854 133.916V38.0778C168.853 36.5851 168.259 35.1539 167.205 34.0984C166.151 33.0428 164.721 32.449 163.23 32.4473H111.696Z" fill="#3F3D56"/>
<path d="M131.344 36.5316C131.075 36.5316 130.812 36.4518 130.588 36.3022C130.365 36.1526 130.19 35.9399 130.087 35.6912C129.984 35.4424 129.958 35.1687 130.01 34.9046C130.062 34.6405 130.192 34.3979 130.382 34.2075C130.572 34.0171 130.815 33.8874 131.078 33.8349C131.342 33.7824 131.616 33.8093 131.864 33.9124C132.113 34.0154 132.325 34.1899 132.475 34.4138C132.624 34.6377 132.704 34.9009 132.704 35.1702C132.703 35.5311 132.56 35.8772 132.305 36.1324C132.05 36.3876 131.704 36.5312 131.344 36.5316ZM131.344 34.2626C131.164 34.2626 130.989 34.3158 130.84 34.4155C130.691 34.5153 130.575 34.657 130.506 34.8228C130.438 34.9887 130.42 35.1712 130.455 35.3472C130.49 35.5233 130.576 35.685 130.703 35.812C130.83 35.9389 130.991 36.0253 131.167 36.0604C131.343 36.0954 131.525 36.0774 131.691 36.0087C131.856 35.94 131.998 35.8237 132.098 35.6744C132.197 35.5252 132.25 35.3497 132.25 35.1702C132.25 34.9295 132.155 34.6988 131.985 34.5287C131.815 34.3585 131.584 34.2628 131.344 34.2626Z" fill="#3F3D56"/>
<path d="M144.716 34.9433H134.743V35.3971H144.716V34.9433Z" fill="#3F3D56"/>
<path d="M165.228 38.5737V56.7261C160.419 56.7259 155.807 54.8133 152.407 51.4092C149.007 48.005 147.096 43.388 147.096 38.5737H165.228Z" fill="#E1FFB1"/>
<path d="M165.455 133.874H109.472V38.3468H165.455V133.874ZM109.925 133.42H165.001V38.8007H109.925V133.42Z" fill="#3F3D56"/>
<path opacity="0.1" d="M152.082 55.5916C155.462 55.5916 158.202 52.8487 158.202 49.4652C158.202 46.0816 155.462 43.3387 152.082 43.3387C148.702 43.3387 145.963 46.0816 145.963 49.4652C145.963 52.8487 148.702 55.5916 152.082 55.5916Z" fill="black"/>
<path d="M151.176 56.2723C154.555 56.2723 157.295 53.5294 157.295 50.1459C157.295 46.7623 154.555 44.0195 151.176 44.0195C147.796 44.0195 145.056 46.7623 145.056 50.1459C145.056 53.5294 147.796 56.2723 151.176 56.2723Z" fill="#E1FFB1"/>
<path d="M120.578 42.2042H111.965V45.3809H120.578V42.2042Z" fill="#3F3D56"/>
<path d="M125.337 72.3825H116.725V75.5592H125.337V72.3825Z" fill="#3F3D56"/>
<path d="M158.428 84.1815H116.725V78.282H158.428V84.1815ZM117.178 83.7277H157.975V78.7358H117.178V83.7277Z" fill="#3F3D56"/>
<path d="M156.162 97.1151H114.912V102.561H156.162V97.1151Z" fill="#F0F0F0"/>
<path d="M125.337 89.6272H116.725V92.8039H125.337V89.6272Z" fill="#3F3D56"/>
<path d="M158.428 101.426H116.725V95.5267H158.428V101.426ZM117.178 100.972H157.975V95.9805H117.178V100.972Z" fill="#3F3D56"/>
<path d="M151.856 113.452H123.298V107.099H151.856V113.452ZM123.751 112.998H151.402V107.553H123.751V112.998Z" fill="#3F3D56"/>
<path d="M157.295 81.9125C157.295 82.3796 157.151 82.8353 156.883 83.2175C156.614 83.5996 156.235 83.8895 155.796 84.0476C155.357 84.2057 154.879 84.2243 154.429 84.1009C153.979 83.9774 153.578 83.7179 153.281 83.3579L153.279 83.3556C153.062 83.0925 152.908 82.7839 152.826 82.4527C152.745 82.1215 152.74 81.7763 152.81 81.4427C152.881 81.1091 153.026 80.7957 153.234 80.5258C153.442 80.2558 153.708 80.0364 154.013 79.8837C154.317 79.731 154.652 79.649 154.993 79.6437C155.333 79.6385 155.671 79.7102 155.98 79.8534C156.289 79.9967 156.562 80.2079 156.778 80.4713C156.994 80.7346 157.149 81.0434 157.229 81.3747C157.229 81.375 157.229 81.3753 157.23 81.3756C157.23 81.3759 157.23 81.3761 157.23 81.3763C157.23 81.3766 157.231 81.3767 157.231 81.3768C157.231 81.3769 157.231 81.377 157.232 81.377C157.274 81.5524 157.295 81.7321 157.295 81.9125Z" fill="#E1FFB1"/>
<path opacity="0.1" d="M157.295 81.9125C157.295 82.3796 157.151 82.8353 156.883 83.2175C156.614 83.5996 156.235 83.8895 155.796 84.0476C155.356 84.2057 154.879 84.2243 154.429 84.1009C153.979 83.9774 153.578 83.7179 153.281 83.3579L153.279 83.3556C153.237 83.1802 153.216 83.0005 153.215 82.8201C153.215 82.353 153.359 81.8972 153.628 81.5151C153.896 81.133 154.276 80.8431 154.715 80.685C155.154 80.5269 155.631 80.5083 156.081 80.6317C156.531 80.7552 156.932 81.0146 157.229 81.3747C157.229 81.375 157.229 81.3753 157.229 81.3756C157.23 81.3759 157.23 81.3761 157.23 81.3763C157.23 81.3765 157.23 81.3767 157.231 81.3768C157.231 81.3769 157.231 81.377 157.232 81.377C157.273 81.5524 157.295 81.7321 157.295 81.9125Z" fill="black"/>
<path d="M155.935 85.543C157.187 85.543 158.202 84.5271 158.202 83.2739C158.202 82.0208 157.187 81.0049 155.935 81.0049C154.684 81.0049 153.669 82.0208 153.669 83.2739C153.669 84.5271 154.684 85.543 155.935 85.543Z" fill="#E1FFB1"/>
<path d="M157.295 99.1572C157.295 99.6243 157.151 100.08 156.883 100.462C156.614 100.844 156.235 101.134 155.796 101.292C155.357 101.45 154.879 101.469 154.429 101.346C153.979 101.222 153.578 100.963 153.281 100.603L153.279 100.6C153.062 100.337 152.908 100.029 152.826 99.6974C152.745 99.3662 152.74 99.021 152.81 98.6874C152.881 98.3538 153.026 98.0404 153.234 97.7705C153.442 97.5006 153.708 97.2811 154.013 97.1284C154.317 96.9757 154.652 96.8937 154.993 96.8885C155.333 96.8832 155.671 96.9549 155.98 97.0982C156.289 97.2414 156.562 97.4526 156.778 97.716C156.994 97.9794 157.149 98.2882 157.229 98.6195C157.229 98.6198 157.229 98.62 157.23 98.6203C157.23 98.6206 157.23 98.6209 157.23 98.6211C157.23 98.6213 157.231 98.6214 157.231 98.6216C157.231 98.6217 157.231 98.6217 157.232 98.6217C157.274 98.7971 157.295 98.9769 157.295 99.1572Z" fill="#E1FFB1"/>
<path opacity="0.1" d="M157.295 99.1572C157.295 99.6243 157.151 100.08 156.883 100.462C156.614 100.844 156.235 101.134 155.796 101.292C155.356 101.45 154.879 101.469 154.429 101.346C153.979 101.222 153.578 100.963 153.281 100.603L153.279 100.6C153.237 100.425 153.216 100.245 153.215 100.065C153.215 99.5977 153.359 99.142 153.628 98.7599C153.896 98.3777 154.276 98.0878 154.715 97.9297C155.154 97.7716 155.631 97.753 156.081 97.8765C156.531 97.9999 156.932 98.2594 157.229 98.6195C157.229 98.6198 157.229 98.62 157.229 98.6203C157.23 98.6206 157.23 98.6209 157.23 98.6211C157.23 98.6213 157.23 98.6214 157.231 98.6216C157.231 98.6217 157.231 98.6217 157.232 98.6217C157.273 98.7971 157.295 98.9769 157.295 99.1572Z" fill="black"/>
<path d="M155.935 102.788C157.187 102.788 158.202 101.772 158.202 100.519C158.202 99.2655 157.187 98.2496 155.935 98.2496C154.684 98.2496 153.669 99.2655 153.669 100.519C153.669 101.772 154.684 102.788 155.935 102.788Z" fill="#E1FFB1"/>
<path d="M117.858 10.8914H106.072V22.6904H117.858V10.8914Z" fill="#F0F0F0"/>
<path d="M152.082 19.5138C151.544 19.5138 151.018 19.3541 150.571 19.0549C150.124 18.7557 149.775 18.3305 149.569 17.8329C149.363 17.3354 149.31 16.7879 149.415 16.2597C149.52 15.7316 149.779 15.2464 150.159 14.8656C150.539 14.4848 151.024 14.2255 151.552 14.1204C152.079 14.0153 152.626 14.0693 153.123 14.2754C153.62 14.4814 154.045 14.8304 154.344 15.2782C154.642 15.726 154.802 16.2524 154.802 16.7909C154.801 17.5128 154.514 18.2049 154.004 18.7154C153.495 19.2259 152.803 19.513 152.082 19.5138ZM152.082 14.5219C151.634 14.5219 151.196 14.655 150.823 14.9043C150.45 15.1536 150.16 15.508 149.988 15.9226C149.817 16.3372 149.772 16.7935 149.859 17.2336C149.947 17.6738 150.162 18.0781 150.479 18.3954C150.796 18.7127 151.2 18.9288 151.64 19.0164C152.08 19.1039 152.535 19.059 152.949 18.8873C153.364 18.7155 153.718 18.4247 153.967 18.0516C154.216 17.6784 154.349 17.2397 154.349 16.7909C154.348 16.1894 154.109 15.6126 153.684 15.1872C153.259 14.7619 152.683 14.5226 152.082 14.5219Z" fill="#3F3D56"/>
<path d="M92.2465 57.4068H86.3536V51.5073H92.2465V57.4068ZM86.8069 56.953H91.7932V51.9611H86.8069V56.953Z" fill="#3F3D56"/>
<path d="M182 101.426H176.107V95.5267H182V101.426ZM176.56 100.972H181.547V95.9805H176.56V100.972Z" fill="#3F3D56"/>
<path d="M65.7291 61.8692L66.7404 62.4145L70.1815 64.2711L75.7367 67.2676L78.9741 61.2543C79.279 60.6893 79.4696 60.0696 79.535 59.4308C79.6004 58.7919 79.5393 58.1465 79.3553 57.5313C79.1712 56.9161 78.8677 56.3433 78.4623 55.8457C78.0568 55.348 77.5573 54.9353 76.9923 54.6312C75.7849 53.9785 74.4018 53.7263 73.0421 53.911C71.6824 54.0957 70.4164 54.7077 69.4264 55.6589L69.4247 55.6606C68.9376 56.1289 68.5266 56.6705 68.2064 57.2658L65.7291 61.8692Z" fill="#2F2E41"/>
<path d="M80.8914 123.195L80.2128 130.669L77.6675 131.008L75.9708 122.515L80.8914 123.195Z" fill="#FFB8B8"/>
<path d="M76.9888 131.009C76.9888 131.009 80.2127 129.31 80.8914 130.669C80.8914 130.669 80.3824 134.746 82.4185 135.255C84.4546 135.765 85.303 139.332 82.4185 139.672C79.534 140.012 77.6676 138.992 76.6495 138.992C75.6314 138.992 76.6495 135.425 76.6495 135.425L76.9888 131.009Z" fill="#2F2E41"/>
<path d="M60.3606 123.195L61.0394 130.669L63.5845 131.008L65.2812 122.515L60.3606 123.195Z" fill="#FFB8B8"/>
<path d="M64.2631 131.009C64.2631 131.009 61.0393 129.31 60.3606 130.669C60.3606 130.669 60.8696 134.746 58.8335 135.255C56.7974 135.765 55.949 139.332 58.8335 139.672C61.718 140.012 63.5844 138.992 64.6025 138.992C65.6205 138.992 64.6025 135.425 64.6025 135.425L64.2631 131.009Z" fill="#2F2E41"/>
<path d="M74.274 63.2315C76.7105 63.2315 78.6856 61.2542 78.6856 58.815C78.6856 56.3758 76.7105 54.3985 74.274 54.3985C71.8376 54.3985 69.8624 56.3758 69.8624 58.815C69.8624 61.2542 71.8376 63.2315 74.274 63.2315Z" fill="#FFB8B8"/>
<path d="M60.1908 67.4782L63.754 73.0839L67.9959 72.7441L74.9527 73.2537C74.9527 73.2537 75.6093 71.939 76.1455 70.6599C76.4391 70.0211 76.6648 69.3533 76.8191 68.6673C76.9888 67.4783 74.6133 66.2892 74.6133 66.2892C74.6133 66.2892 74.52 66.2722 74.3639 66.2348C74.1569 66.1856 73.8379 66.104 73.4884 65.9851C72.6994 65.7167 71.7509 65.2615 71.5591 64.5905C71.2198 63.4014 73.7649 61.7028 73.7649 61.7028L70.7108 58.815C70.7108 58.815 67.9976 62.5878 64.7025 63.4473C64.5115 63.4978 64.3177 63.5375 64.1222 63.5662C64.112 63.5679 64.1035 63.5696 64.0934 63.5713C60.5301 64.0809 60.1908 67.4782 60.1908 67.4782Z" fill="#FFB8B8"/>
<path d="M62.0573 65.9494L60.1908 67.4782C60.1908 67.4782 58.6637 74.7825 59.1728 76.8209C59.6818 78.8593 59.0031 80.7279 59.0031 81.0676C59.0031 81.4074 57.476 94.1474 57.476 94.1474C57.476 94.1474 54.4218 100.942 57.6457 100.263C60.8695 99.5832 59.6818 92.7885 59.6818 92.7885L63.5844 80.8978V70.8756L62.0573 65.9494Z" fill="#FFB8B8"/>
<path d="M75.4618 67.3084L76.8192 68.3276L77.4979 82.5964L82.5882 94.8268C82.5882 94.8268 86.3211 100.772 83.9456 100.942C81.5701 101.112 80.0431 94.8268 80.0431 94.8268L75.4618 83.106L74.7831 71.7249L75.4618 67.3084Z" fill="#FFB8B8"/>
<path d="M66.9779 68.3276C66.9779 68.3276 70.3714 70.7057 75.8011 69.8564C75.8011 69.8564 77.3282 72.914 76.4798 74.6126C75.6314 76.3113 77.4979 80.3881 77.8372 80.8977C78.1765 81.4073 82.0791 91.9391 83.4365 103.32C84.794 114.701 88.5268 122.515 85.303 123.534C82.0791 124.554 75.4617 125.743 74.783 124.723C74.1043 123.704 73.0863 98.3941 73.0863 98.3941L71.2198 108.076C71.2198 108.076 73.765 124.554 71.8985 124.893C70.0321 125.233 58.3244 124.214 58.6637 122.175C59.0031 120.137 62.3966 109.435 62.3966 109.435C62.3966 109.435 62.2269 88.0322 65.6205 83.9553C65.6205 83.9553 66.9779 81.7471 65.1115 78.8593C63.245 75.9716 63.4147 71.3852 63.4147 71.3852C63.4147 71.3852 64.7721 71.3852 66.9779 68.3276Z" fill="#2F2E41"/>
<path d="M64.1223 63.5661L66.9781 69.8564L67.6567 69.5167L64.7025 63.4472L64.1223 63.5661Z" fill="#2F2E41"/>
<path d="M73.4884 65.9851L75.6314 70.7057L76.1455 70.6598L75.9708 69.8564L74.3639 66.2348C74.1569 66.1855 73.8379 66.104 73.4884 65.9851Z" fill="#2F2E41"/>
<path d="M66.7404 62.4145C66.9035 62.94 67.218 63.4056 67.6442 63.753C68.0705 64.1004 68.5898 64.3141 69.1369 64.3675C69.6839 64.4208 70.2346 64.3113 70.7198 64.0527C71.205 63.7942 71.6033 63.398 71.8646 62.9139C69.7182 60.1043 71.5592 58.3394 75.0461 57.0042C75.3087 56.5162 75.4204 55.961 75.3669 55.4093C75.3134 54.8575 75.0972 54.3342 74.7457 53.9058C73.7846 53.7828 72.8082 53.8763 71.8878 54.1796C70.9675 54.4829 70.1265 54.9883 69.4263 55.6589L69.4246 55.6606L66.9474 60.2606C66.771 60.5876 66.6617 60.9466 66.6262 61.3166C66.5906 61.6865 66.6294 62.0598 66.7404 62.4145Z" fill="#2F2E41"/>
<path d="M71.644 60.3438C71.972 60.3438 72.2379 59.8875 72.2379 59.3246C72.2379 58.7617 71.972 58.3054 71.644 58.3054C71.3161 58.3054 71.0502 58.7617 71.0502 59.3246C71.0502 59.8875 71.3161 60.3438 71.644 60.3438Z" fill="#FFB8B8"/>
<path d="M73.4138 57.6616L78.5143 59.9752L79.4492 57.9096C79.2882 57.1547 78.9509 56.4486 78.4651 55.8491L74.9545 54.2575L73.4138 57.6616Z" fill="#2F2E41"/>
<path d="M85.6737 103.242C86.9255 103.242 87.9402 102.226 87.9402 100.972C87.9402 99.7193 86.9255 98.7034 85.6737 98.7034C84.422 98.7034 83.4072 99.7193 83.4072 100.972C83.4072 102.226 84.422 103.242 85.6737 103.242Z" fill="#E1FFB1"/>
<path d="M12.9092 116.73C13.7273 116.73 14.3905 116.066 14.3905 115.247C14.3905 114.428 13.7273 113.764 12.9092 113.764C12.0912 113.764 11.428 114.428 11.428 115.247C11.428 116.066 12.0912 116.73 12.9092 116.73Z" fill="#FF6584"/>
<path d="M20.3929 122.976H19.9396V139.86H20.3929V122.976Z" fill="#3F3D56"/>
<path d="M20.1662 125.364C21.4834 125.364 22.5512 124.295 22.5512 122.976C22.5512 121.657 21.4834 120.588 20.1662 120.588C18.8491 120.588 17.7812 121.657 17.7812 122.976C17.7812 124.295 18.8491 125.364 20.1662 125.364Z" fill="#3F3D56"/>
<path d="M20.1663 133.382C20.1663 133.382 19.8256 126.046 12.8409 126.899L20.1663 133.382Z" fill="#3F3D56"/>
</svg>
